<svg width="513" height="513" viewBox="0 0 513 513" fill="none" xmlns="http://www.w3.org/2000/svg">
<rect x="449.133" y="160.003" width="63.8619" height="352" fill="#09D484"/>
<rect x="159.73" y="448.003" width="351.24" height="64" fill="#09D484"/>
<rect x="1" width="63.8619" height="352" fill="#09D484"/>
<rect x="1" width="351.24" height="64" fill="#09D484"/>
<path d="M341.413 161.508C321.509 150.548 294.416 145.525 281.517 144.764L262.164 144.003H249.263C239.681 144.003 224.999 148.316 220.698 150.092C215.476 152.883 202.452 160.443 192.132 168.358C181.811 176.274 176.16 189.923 174.624 195.758C173.702 202.862 172.044 219.657 172.781 230.008C172.781 240.664 179.845 249.543 183.839 252.841C189.367 258.169 207.183 267.049 217.012 269.586C224.076 271.108 241.184 276.022 254.792 279.48C266.771 282.524 271.379 284.047 279.674 290.897C287.965 300.791 281.516 310.432 277.829 312.969C274.758 315.759 266.587 320.123 254.792 321.341C242.997 322.559 227.148 317.789 220.698 315.252L214.37 312.823L206.036 308.402L190.289 299.269L162.645 344.174C169.709 347.726 186.419 355.743 196.739 359.396C207.797 363.311 225.612 366.5 234.52 367.007L257.557 368.003C263.453 368.003 279.674 367.007 283.358 365.485C286.653 364.124 311.821 359.84 329.432 346.457C341.692 337.141 345.591 331.938 346.206 330.67C350.632 321.536 351.547 316.521 352.469 311.447L354.23 296.928L352.469 281.763L348.783 269.586C347.247 266.541 342.148 258.93 334.039 252.841C325.93 246.752 312.231 240.664 306.395 238.38L281.517 231.53C272.916 228.486 254.792 225.441 247.422 219.353C239.401 212.726 239.803 205.653 242.813 200.325C244.963 196.519 251.476 191.648 260.323 190.43C271.38 188.908 273.225 190.43 281.517 190.43C289.808 190.43 306.396 199.056 315.611 203.369L341.413 161.508Z" fill="#09D484"/>
</svg>
